General
Complete name                    : wild.hogs.DUAL.AUDIO{Hindi-Eng}DvdRip.aaaevilacharya
Format                           : Matroska
File size                        : 764 MiB
Duration                         : 1h 39mn
Overall bit rate                 : 1 073 Kbps
Movie name                       : aaaevilacharya
Encoded date                     : UTC 2010-11-10 17:21:42


Video
ID                               : 1
Format                           : MPEG-4 Visual
Format profile                   : Advanced Simple@L5
Format settings, BVOP            : Yes
Format settings, QPel            : No
Format settings, GMC             : No warppoints
Format settings, Matrix          : Default (H.263)
Codec ID                         : DX50
Codec ID/Hint                    : DivX 5
Duration                         : 1h 39mn
Bit rate                         : 827 Kbps
Width                            : 720 pixels
Height                           : 352 pixels
Display aspect ratio             : 2.045
Original display aspect ratio    : 2.40:1
Frame rate                       : 23.976 fps
Color space                      : YUV
Chroma subsampling               : 4:2:0
Bit depth                        : 8 bits
Scan type                        : Progressive
Bits/(Pixel*Frame)               : 0.190
Stream size                      : 590 MiB (77%)
Title                            : aaaevilacharya
Writing library                  : XviD
Language                         : Hindi

Audio #1
ID                               : 2
Format                           : MPEG Audio
Format version                   : Version 1
Format profile                   : Layer 3
Mode                             : Joint stereo
Mode extension                   : MS Stereo
Codec ID                         : A_MPEG/L3
Codec ID/Hint                    : MP3
Duration                         : 1h 39mn
Bit rate mode                    : Constant
Bit rate                         : 112 Kbps
Channel(s)                       : 2 channels
Sampling rate                    : 44.1 KHz
Stream size                      : 79.8 MiB (10%)
Title                            : aaaevilacharya
Writing library                  : LAME3.97
Language                         : Hindi

Audio #2
ID                               : 3
Format                           : MPEG Audio
Format version                   : Version 1
Format profile                   : Layer 3
Mode                             : Joint stereo
Mode extension                   : MS Stereo
Codec ID                         : A_MPEG/L3
Codec ID/Hint                    : MP3
Duration                         : 1h 39mn
Bit rate mode                    : Constant
Bit rate                         : 112 Kbps
Channel(s)                       : 2 channels
Sampling rate                    : 44.1 KHz
Stream size                      : 79.8 MiB (10%)
Title                            : aaaevilacharya
Language                         : English

screenshots
 
http://img64.imageshack.us/img64/7043/2007wildhogswallpaper00.jpg
 
http://img577.imageshack.us/img577/4600/vlcsnap2010111012h39m53.png
 
http://img153.imageshack.us/img153/8060/vlcsnap2010111012h40m26.png
 
http://img607.imageshack.us/img607/3167/vlcsnap2010111012h41m05.png
 
http://img825.imageshack.us/img825/875/vlcsnap2010111012h41m13.png
 
http://img703.imageshack.us/img703/7231/vlcsnap2010111012h41m36.png
 
http://img684.imageshack.us/img684/1097/vlcsnap2010111012h41m46.png
 
http://img261.imageshack.us/img261/108/vlcsnap2010111012h42m35.png
 
http://img59.imageshack.us/img59/5396/vlcsnap2010111012h42m59.png
 
http://img251.imageshack.us/img251/7721/vlcsnap2010111012h43m59.png